<?xml version="1.0" encoding="iso-8859-1"?>
<!-- Generator: Adobe Illustrator 19.0.0, SVG Export Plug-In . SVG Version: 6.00 Build 0)  -->
<svg version="1.1" id="Layer_1" xmlns="http://www.w3.org/2000/svg" xmlns:xlink="http://www.w3.org/1999/xlink" x="0px" y="0px"
	 viewBox="0 0 511.999 511.999" style="enable-background:new 0 0 511.999 511.999;" xml:space="preserve">
<path style="fill:#666666;" d="M256.597,372.531c-0.902-25.848,8.501-51.973,28.234-71.706
	c31.516-31.516,79.379-36.71,116.281-15.582c1.065,0.61,2.121,1.241,3.168,1.896c3.382-13.5,10.344-26.285,20.901-36.842
	c21.166-21.152,51.256-27.903,78.125-20.25l-127.95-90.578l-7.784,23.779c-9.602,29.335-36.947,49.162-67.807,49.162v-51.721
	l-11.228,9.187c-18.927,15.485-46.145,15.485-65.071,0l-11.228-9.187v51.721c-30.86,0-58.206-19.826-67.808-49.162l-7.784-23.779
	L8.695,230.047c26.869-7.652,56.959-0.902,78.125,20.25c10.556,10.556,17.519,23.341,20.901,36.842
	c1.047-0.654,2.103-1.285,3.168-1.896c36.902-21.127,84.766-15.933,116.281,15.582c19.734,19.734,29.136,45.859,28.234,71.706h1.193
	V372.531z"/>
<g>
	<path style="fill:#F2F2F2;" d="M239.774,235.094c-4.801,0-8.693-3.892-8.693-8.693v-18.545c0-4.801,3.892-8.693,8.693-8.693
		c4.801,0,8.693,3.892,8.693,8.693v18.545C248.467,231.202,244.575,235.094,239.774,235.094z"/>
	<path style="fill:#F2F2F2;" d="M272.228,235.094c-4.801,0-8.693-3.892-8.693-8.693v-18.545c0-4.801,3.892-8.693,8.693-8.693
		s8.693,3.892,8.693,8.693v18.545C280.921,231.202,277.029,235.094,272.228,235.094z"/>
</g>
<path style="fill:#333333;" d="M508.328,222.952L380.38,132.373c-2.254-1.595-5.131-2.024-7.751-1.159
	c-2.621,0.866-4.675,2.926-5.534,5.55l-7.784,23.779c-7.536,23.027-27.382,39.315-50.853,42.573v-42.429
	c0-3.359-1.935-6.418-4.97-7.855c-3.036-1.44-6.629-0.999-9.228,1.128l-11.228,9.187c-15.662,12.814-38.398,12.816-54.062,0
	l-11.228-9.187c-2.599-2.127-6.191-2.566-9.228-1.128c-3.036,1.438-4.97,4.496-4.97,7.855v42.429
	c-23.47-3.258-43.315-19.547-50.853-42.573l-7.784-23.779c-0.859-2.624-2.913-4.684-5.534-5.55
	c-2.622-0.867-5.498-0.436-7.751,1.159L3.671,222.952c-3.458,2.448-4.647,7.031-2.818,10.851c1.83,3.82,6.15,5.764,10.221,4.605
	c24.744-7.048,51.413-0.136,69.597,18.037c9.075,9.075,15.512,20.419,18.615,32.807c0.676,2.697,2.602,4.909,5.18,5.948
	c2.577,1.04,5.5,0.785,7.859-0.688c0.952-0.595,1.911-1.168,2.882-1.724c34.309-19.642,77.82-13.809,105.815,14.184
	c17.428,17.429,26.554,40.604,25.694,65.256c-0.082,2.358,0.797,4.646,2.435,6.343c1.639,1.696,3.895,2.654,6.253,2.654h1.194
	c2.359,0,4.614-0.959,6.253-2.654c1.638-1.696,2.516-3.985,2.435-6.343c-0.86-24.653,8.264-47.828,25.694-65.256
	c27.994-27.993,71.508-33.826,105.816-14.184c0.968,0.555,1.929,1.129,2.879,1.724c2.359,1.473,5.279,1.729,7.859,0.688
	c2.579-1.04,4.504-3.251,5.18-5.948c3.103-12.388,9.54-23.732,18.614-32.806c18.185-18.173,44.852-25.084,69.599-18.039
	c4.074,1.161,8.392-0.785,10.221-4.605C512.975,229.982,511.786,225.4,508.328,222.952z M348.508,204.58
	c-8.3,19.597-20.266,41.25-37.456,61.528c-1.153-10.123-2.296-25.065-2.544-45.492C323.322,219.005,337.089,213.346,348.508,204.58z
	 M203.492,220.616c-0.248,20.426-1.391,35.366-2.543,45.487c-17.138-20.234-29.089-41.873-37.39-61.474
	C174.965,213.367,188.706,219.008,203.492,220.616z M39.649,218.785l84.288-59.669l-19.439,99.246
	c-3.327-5.099-7.186-9.866-11.534-14.214C78.409,229.603,59.491,220.85,39.649,218.785z M158.71,263.853
	c-13.202,0-26.461,2.482-39.043,7.521l17.345-88.553c7.105,23.531,19.603,53.796,41.374,82.889
	C171.903,264.485,165.315,263.853,158.71,263.853z M278.684,294.679c-9.778,9.778-17.442,21.342-22.685,33.91
	c-5.241-12.569-12.905-24.133-22.683-33.91c-5.217-5.217-10.89-9.779-16.895-13.695c1.717-9.874,4.508-31.604,4.508-68.574v-33.527
	c20.864,14.995,49.276,14.996,70.141,0v33.527c0,36.972,2.791,58.701,4.508,68.575C289.574,284.901,283.9,289.462,278.684,294.679z
	 M333.602,265.715c21.774-29.092,34.281-59.359,41.388-82.892l17.345,88.552C373.452,263.811,353.046,262.04,333.602,265.715z
	 M419.034,244.15c-4.347,4.347-8.206,9.113-11.532,14.212l-19.439-99.247l84.288,59.669
	C452.512,220.851,433.589,229.604,419.034,244.15z"/>
<g>
</g>
<g>
</g>
<g>
</g>
<g>
</g>
<g>
</g>
<g>
</g>
<g>
</g>
<g>
</g>
<g>
</g>
<g>
</g>
<g>
</g>
<g>
</g>
<g>
</g>
<g>
</g>
<g>
</g>
</svg>
