<?xml version="1.0" encoding="iso-8859-1"?>
<!-- Generator: Adobe Illustrator 19.0.0, SVG Export Plug-In . SVG Version: 6.00 Build 0)  -->
<svg version="1.1" id="Layer_1" xmlns="http://www.w3.org/2000/svg" xmlns:xlink="http://www.w3.org/1999/xlink" x="0px" y="0px"
	 viewBox="0 0 492.994 492.994" style="enable-background:new 0 0 492.994 492.994;" xml:space="preserve">
<g id="XMLID_1066_">
	<g id="XMLID_1071_">
		<path style="fill:#FCEA10;" d="M277.309,263.93v-46.218l-30.812-23.109v-23.109l-92.436-69.327V263.93h-42.367
			c-31.907,0-57.773,25.866-57.773,57.773s25.866,57.773,57.773,57.773h186.611c56.473,0,102.253-45.78,102.253-102.253V263.93
			H277.309z M184.873,262.646v1.284h-4.402L184.873,262.646z"/>
	</g>
	<g id="XMLID_583_">
		<polygon style="fill:#BE1622;" points="354.34,271.633 354.34,356.367 385.152,333.258 400.558,294.743 392.855,263.93 		"/>
	</g>
	<g id="XMLID_531_">
		<circle style="fill:#FDF270;" cx="100.14" cy="325.555" r="38.515"/>
	</g>
	<g id="XMLID_578_">
		<path style="fill:#BE1622;" d="M154.061,379.476c0-29.78,24.141-53.921,53.921-53.921s53.921,24.141,53.921,53.921"/>
	</g>
	<g id="XMLID_561_">
		<rect x="177.373" y="144.533" style="fill:#1D1D1B;" width="15" height="154.061"/>
	</g>
	<g id="XMLID_562_">
		<rect x="208.185" y="167.643" style="fill:#1D1D1B;" width="15" height="53.921"/>
	</g>
	<g id="XMLID_563_">
		<rect x="238.997" y="190.752" style="fill:#1D1D1B;" width="15" height="53.921"/>
	</g>
	<g id="XMLID_560_">
		<rect x="92.437" y="302.649" style="fill:#1D1D1B;" width="15.406" height="15"/>
	</g>
	<g id="XMLID_568_">
		<rect x="469.885" y="318.055" style="fill:#1D1D1B;" width="23.109" height="15"/>
	</g>
	<g id="XMLID_569_">
		<rect x="146.561" y="102.167" style="fill:#1D1D1B;" width="15" height="146.357"/>
	</g>
	<path style="fill:#1D1D1B;" d="M397.311,318.055c6.496-14.454,10.284-30.378,10.707-47.125l53.69-53.691l-10.607-10.607
		l-53.65,53.651H284.81V213.86h-15v61.422H392.8c-3.862,56.093-50.73,100.545-107.787,100.545h-15.727
		c-1.896-32.174-28.662-57.772-61.303-57.772c-32.643,0-59.409,25.598-61.304,57.772h-34.984c-27.721,0-50.272-22.552-50.272-50.272
		s22.552-50.272,50.272-50.272h57.772v-15h-57.772c-33.454,0-61.095,25.302-64.828,57.772H0v15h46.866
		c3.734,32.47,31.375,57.772,64.828,57.772h173.318c43.886,0,82.472-23.099,104.258-57.772h72.911v-15L397.311,318.055
		L397.311,318.055z M161.718,375.827c1.869-23.896,21.897-42.772,46.265-42.772s44.395,18.876,46.264,42.772H161.718z"/>
</g>
<g>
</g>
<g>
</g>
<g>
</g>
<g>
</g>
<g>
</g>
<g>
</g>
<g>
</g>
<g>
</g>
<g>
</g>
<g>
</g>
<g>
</g>
<g>
</g>
<g>
</g>
<g>
</g>
<g>
</g>
</svg>
