<?xml version="1.0" encoding="iso-8859-1"?>
<!-- Generator: Adobe Illustrator 19.0.0, SVG Export Plug-In . SVG Version: 6.00 Build 0)  -->
<svg version="1.1" id="Layer_1" xmlns="http://www.w3.org/2000/svg" xmlns:xlink="http://www.w3.org/1999/xlink" x="0px" y="0px"
	 viewBox="0 0 512 512" style="enable-background:new 0 0 512 512;" xml:space="preserve">
<path style="fill:#F2F2F2;" d="M401.389,396.158c55.456,0,100.412-44.956,100.412-100.412s-44.956-100.412-100.412-100.412
	c-6.227,0-12.319,0.571-18.232,1.655C360.88,149.069,312.324,115.84,256,115.84s-104.88,33.229-127.157,81.149
	c-5.912-1.084-12.005-1.655-18.232-1.655c-55.456,0-100.412,44.956-100.412,100.412s44.956,100.412,100.412,100.412H401.389z"/>
<g>
	<path style="fill:#4D4D4D;" d="M401.389,406.357H110.611C49.62,406.357,0,356.737,0,295.746s49.62-110.61,110.611-110.61
		c4.134,0,8.278,0.233,12.388,0.691c11.962-22.644,29.502-41.877,51.09-55.928c24.377-15.869,52.702-24.256,81.911-24.256
		c29.208,0,57.533,8.388,81.911,24.256c21.588,14.051,39.128,33.284,51.09,55.928c4.11-0.459,8.255-0.691,12.388-0.691
		c60.991,0,110.611,49.619,110.611,110.61S462.38,406.357,401.389,406.357z M110.611,205.534c-49.744,0-90.213,40.468-90.213,90.212
		s40.469,90.213,90.213,90.213h290.777c49.744,0,90.213-40.469,90.213-90.213c0-49.743-40.469-90.212-90.213-90.212
		c-5.494,0-11.009,0.501-16.39,1.488c-4.572,0.84-9.129-1.519-11.09-5.732c-21.25-45.712-67.532-75.249-117.908-75.249
		s-96.659,29.537-117.908,75.249c-1.959,4.213-6.517,6.573-11.09,5.732C121.62,206.035,116.106,205.534,110.611,205.534z"/>
	<path style="fill:#4D4D4D;" d="M296.793,374.978h-6.276c-5.632,0-10.199-4.567-10.199-10.199c0-5.632,4.567-10.199,10.199-10.199
		h6.276c5.632,0,10.199,4.567,10.199,10.199C306.992,370.411,302.426,374.978,296.793,374.978z"/>
	<path style="fill:#4D4D4D;" d="M247.633,374.978H102.244c-5.632,0-10.199-4.567-10.199-10.199c0-5.632,4.567-10.199,10.199-10.199
		h145.389c5.632,0,10.199,4.567,10.199,10.199C257.832,370.411,253.265,374.978,247.633,374.978z"/>
</g>
<g>
</g>
<g>
</g>
<g>
</g>
<g>
</g>
<g>
</g>
<g>
</g>
<g>
</g>
<g>
</g>
<g>
</g>
<g>
</g>
<g>
</g>
<g>
</g>
<g>
</g>
<g>
</g>
<g>
</g>
</svg>
